<?xml version="1.0" encoding="utf-8"?>
<!-- Generator: Adobe Illustrator 20.0.0, SVG Export Plug-In . SVG Version: 6.00 Build 0)  -->
<svg version="1.1" id="Layer_1" xmlns="http://www.w3.org/2000/svg" xmlns:xlink="http://www.w3.org/1999/xlink" x="0px" y="0px"
	 viewBox="0 0 370 496" style="enable-background:new 0 0 370 496;" xml:space="preserve">
<g>
	<path d="M319.3,231.1l-0.2,10.4c-0.8,11.6-3.8,31.9-14.1,54.7c3.3-15.2,5-31,5-47.2c0-12.1-1-24-2.8-35.5
		C292,118.6,217.5,43.6,123,28c-11.3-2.7-17.9-3-17.9-3c0.2,0.3,0.5,0.6,0.7,0.8c39.5,47.2,44.1,96.7,37.7,131.9
		c-2.3,12.6-6,23.4-10,31.6c0,0,3.4-13.9,3-29.7c-0.3-14.2-3.6-30-15-38.6c3.5,18.4-0.8,33.5-9.1,47.7C87.7,210.8,27,242.4,22,320.4
		v3.8c0,53.7,25.6,99,68.7,125c-6.9-12.3-15-35.2-8.7-60.2c4,23.7,10,36,20.9,51.8c8.2,11.7,19.1,19.3,33.1,24.9s29,7.2,45.9,7.2
		c55.8,0,105.2-28.6,133.8-72l0.3,0.1v0c16-25.3,26.1-55.5,26.1-88C342.1,283.1,333.6,255.1,319.3,231.1z"/>
</g>
</svg>
